<?xml version="1.0" encoding="UTF-8"?>
<svg xmlns="http://www.w3.org/2000/svg" xmlns:xlink="http://www.w3.org/1999/xlink" width="15px" height="15px" viewBox="0 0 15 15" version="1.1">
<g id="surface1">
<path style=" stroke:none;fill-rule:nonzero;fill:rgb(0%,0%,0%);fill-opacity:1;" d="M 14.746094 5.445312 L 7.734375 1.808594 C 7.589844 1.734375 7.421875 1.734375 7.277344 1.808594 L 0.265625 5.445312 C 0.101562 5.53125 0 5.703125 0 5.886719 L 0 7.785156 C 0 8.058594 0.222656 8.28125 0.496094 8.28125 C 0.769531 8.28125 0.992188 8.058594 0.992188 7.785156 L 0.992188 6.703125 L 2.054688 7.253906 L 2.054688 11.207031 C 2.054688 11.308594 2.085938 11.410156 2.148438 11.492188 C 2.199219 11.566406 3.457031 13.261719 7.507812 13.261719 C 11.554688 13.261719 12.8125 11.566406 12.863281 11.492188 C 12.925781 11.410156 12.957031 11.308594 12.957031 11.207031 L 12.957031 7.253906 L 14.746094 6.328125 C 14.910156 6.242188 15.011719 6.070312 15.011719 5.886719 C 15.011719 5.703125 14.910156 5.53125 14.746094 5.445312 Z M 11.964844 11.015625 C 11.636719 11.332031 10.414062 12.269531 7.507812 12.269531 C 4.597656 12.269531 3.375 11.332031 3.046875 11.015625 L 3.046875 7.769531 L 7.277344 9.964844 C 7.347656 10.003906 7.425781 10.023438 7.507812 10.023438 C 7.585938 10.023438 7.664062 10.003906 7.734375 9.964844 L 11.964844 7.769531 Z M 7.507812 8.96875 L 1.574219 5.886719 L 7.507812 2.808594 L 13.4375 5.886719 Z M 7.507812 8.96875 "/>
<path style=" stroke:none;fill-rule:nonzero;fill:rgb(0%,0%,0%);fill-opacity:1;" d="M 0.496094 8.71875 C 0.222656 8.71875 0 8.941406 0 9.214844 L 0 9.816406 C 0 10.089844 0.222656 10.3125 0.496094 10.3125 C 0.769531 10.3125 0.992188 10.089844 0.992188 9.816406 L 0.992188 9.214844 C 0.992188 8.941406 0.769531 8.71875 0.496094 8.71875 Z M 0.496094 8.71875 "/>
</g>
</svg>
